<svg xmlns="http://www.w3.org/2000/svg" viewBox="0 0 360 640" role="img" aria-labelledby="title desc">
  <title id="title">Custom brand mark</title>
  <desc id="desc">Abstract green, orange, and blue emblem.</desc>
  <g fill="none" stroke-linecap="round" stroke-linejoin="round">
    <path
      d="M54 422C20 345 27 244 82 162C114 113 157 67 221 30C223 89 224 146 249 218C275 291 332 371 285 470C253 537 183 559 122 529C90 513 67 480 54 422Z"
      stroke="#b1d74c"
      stroke-width="34"
    />
    <path
      d="M149 504C124 388 119 287 149 212C160 277 177 342 210 403C230 440 233 476 222 510"
      stroke="#54af31"
      stroke-width="28"
    />
    <path
      d="M253 44C241 117 246 189 274 251C293 295 308 334 314 377"
      stroke="#f28b33"
      stroke-width="24"
    />
    <path
      d="M286 224C320 258 341 306 349 369C357 431 344 490 310 537C281 577 242 608 189 629"
      stroke="#1497cf"
      stroke-width="28"
    />
  </g>
  <circle cx="322" cy="170" r="36" fill="#1497cf" />
</svg>
